<svg xmlns="http://www.w3.org/2000/svg" xmlns:xlink="http://www.w3.org/1999/xlink" width="518" zoomAndPan="magnify" viewBox="0 0 388.5 181.5" height="242" preserveAspectRatio="xMidYMid meet" version="1.0"><defs><g/><clipPath id="a08e2b5f38"><path d="M 360.789062 22.898438 L 386.96875 22.898438 L 386.96875 49.078125 L 360.789062 49.078125 Z M 360.789062 22.898438 " clip-rule="nonzero"/></clipPath></defs><g fill="#ffffff" fill-opacity="1"><g transform="translate(29.952538, 121.415415)"><g><path d="M 8.96875 -69.796875 L 23.9375 -69.796875 L 23.9375 -13.953125 L 56.34375 -13.953125 L 56.34375 0 L 8.96875 0 Z M 8.96875 -69.796875 "/></g></g></g><g fill="#ffffff" fill-opacity="1"><g transform="translate(83.303323, 121.415415)"><g/></g></g><g fill="#ffffff" fill-opacity="1"><g transform="translate(99.258569, 121.415415)"><g><path d="M 27.421875 -69.796875 L 44.375 -69.796875 L 71.296875 0 L 55.34375 0 L 49.359375 -15.953125 L 22.4375 -15.953125 L 16.453125 0 L 0.5 0 Z M 44.375 -29.421875 L 36.09375 -52.359375 L 35.703125 -52.359375 L 27.421875 -29.421875 Z M 44.375 -29.421875 "/></g></g></g><g fill="#ffffff" fill-opacity="1"><g transform="translate(166.071758, 121.415415)"><g/></g></g><g fill="#ffffff" fill-opacity="1"><g transform="translate(182.027009, 121.415415)"><g><path d="M 42.375 1.5 C 36.988281 1.5 31.984375 0.535156 27.359375 -1.390625 C 22.742188 -3.316406 18.738281 -5.925781 15.34375 -9.21875 C 11.957031 -12.507812 9.300781 -16.363281 7.375 -20.78125 C 5.445312 -25.207031 4.484375 -29.914062 4.484375 -34.90625 C 4.484375 -39.882812 5.445312 -44.582031 7.375 -49 C 9.300781 -53.425781 11.957031 -57.285156 15.34375 -60.578125 C 18.738281 -63.867188 22.742188 -66.476562 27.359375 -68.40625 C 31.984375 -70.332031 36.988281 -71.296875 42.375 -71.296875 C 47.757812 -71.296875 52.757812 -70.332031 57.375 -68.40625 C 62 -66.476562 66.003906 -63.867188 69.390625 -60.578125 C 72.785156 -57.285156 75.445312 -53.425781 77.375 -49 C 79.3125 -44.582031 80.28125 -39.882812 80.28125 -34.90625 C 80.28125 -29.914062 79.3125 -25.207031 77.375 -20.78125 C 75.445312 -16.363281 72.785156 -12.507812 69.390625 -9.21875 C 66.003906 -5.925781 62 -3.316406 57.375 -1.390625 C 52.757812 0.535156 47.757812 1.5 42.375 1.5 Z M 42.375 -12.46875 C 45.5 -12.46875 48.425781 -13.046875 51.15625 -14.203125 C 53.882812 -15.367188 56.257812 -16.960938 58.28125 -18.984375 C 60.3125 -21.015625 61.90625 -23.394531 63.0625 -26.125 C 64.226562 -28.851562 64.8125 -31.78125 64.8125 -34.90625 C 64.8125 -38.03125 64.226562 -40.953125 63.0625 -43.671875 C 61.90625 -46.398438 60.3125 -48.773438 58.28125 -50.796875 C 56.257812 -52.828125 53.882812 -54.425781 51.15625 -55.59375 C 48.425781 -56.757812 45.5 -57.34375 42.375 -57.34375 C 39.25 -57.34375 36.320312 -56.757812 33.59375 -55.59375 C 30.875 -54.425781 28.5 -52.828125 26.46875 -50.796875 C 24.445312 -48.773438 22.851562 -46.398438 21.6875 -43.671875 C 20.519531 -40.953125 19.9375 -38.03125 19.9375 -34.90625 C 19.9375 -31.78125 20.519531 -28.851562 21.6875 -26.125 C 22.851562 -23.394531 24.445312 -21.015625 26.46875 -18.984375 C 28.5 -16.960938 30.875 -15.367188 33.59375 -14.203125 C 36.320312 -13.046875 39.25 -12.46875 42.375 -12.46875 Z M 42.375 -12.46875 "/></g></g></g><g fill="#ffffff" fill-opacity="1"><g transform="translate(261.803977, 121.415415)"><g/></g></g><g fill="#ffffff" fill-opacity="1"><g transform="translate(277.759228, 121.415415)"><g><path d="M 8.96875 -69.796875 L 22.4375 -69.796875 L 56.34375 -26.421875 L 56.34375 -69.796875 L 71.296875 -69.796875 L 71.296875 0 L 57.84375 0 L 23.9375 -43.375 L 23.9375 0 L 8.96875 0 Z M 8.96875 -69.796875 "/></g></g></g><g clip-path="url(#a08e2b5f38)"><path fill="#ef4136" d="M 386.96875 35.984375 C 386.96875 36.84375 386.882812 37.695312 386.714844 38.535156 C 386.546875 39.378906 386.300781 40.199219 385.972656 40.992188 C 385.640625 41.785156 385.238281 42.539062 384.761719 43.253906 C 384.285156 43.96875 383.742188 44.628906 383.132812 45.238281 C 382.527344 45.847656 381.863281 46.390625 381.152344 46.867188 C 380.4375 47.34375 379.679688 47.746094 378.886719 48.074219 C 378.09375 48.40625 377.273438 48.652344 376.433594 48.820312 C 375.589844 48.988281 374.738281 49.070312 373.878906 49.070312 C 373.019531 49.070312 372.167969 48.988281 371.324219 48.820312 C 370.480469 48.652344 369.664062 48.40625 368.871094 48.074219 C 368.074219 47.746094 367.320312 47.34375 366.605469 46.867188 C 365.890625 46.390625 365.230469 45.847656 364.625 45.238281 C 364.015625 44.628906 363.472656 43.96875 362.996094 43.253906 C 362.519531 42.539062 362.113281 41.785156 361.785156 40.992188 C 361.457031 40.199219 361.207031 39.378906 361.042969 38.535156 C 360.875 37.695312 360.789062 36.84375 360.789062 35.984375 C 360.789062 35.125 360.875 34.273438 361.042969 33.429688 C 361.207031 32.585938 361.457031 31.769531 361.785156 30.972656 C 362.113281 30.179688 362.519531 29.425781 362.996094 28.710938 C 363.472656 27.996094 364.015625 27.335938 364.625 26.726562 C 365.230469 26.121094 365.890625 25.578125 366.605469 25.101562 C 367.320312 24.621094 368.074219 24.21875 368.871094 23.890625 C 369.664062 23.5625 370.480469 23.3125 371.324219 23.144531 C 372.167969 22.976562 373.019531 22.894531 373.878906 22.894531 C 374.738281 22.894531 375.589844 22.976562 376.433594 23.144531 C 377.273438 23.3125 378.09375 23.5625 378.886719 23.890625 C 379.679688 24.21875 380.4375 24.621094 381.152344 25.101562 C 381.863281 25.578125 382.527344 26.121094 383.132812 26.726562 C 383.742188 27.335938 384.285156 27.996094 384.761719 28.710938 C 385.238281 29.425781 385.640625 30.179688 385.972656 30.972656 C 386.300781 31.769531 386.546875 32.585938 386.714844 33.429688 C 386.882812 34.273438 386.96875 35.125 386.96875 35.984375 Z M 386.96875 35.984375 " fill-opacity="1" fill-rule="nonzero"/></g><g fill="#ffffff" fill-opacity="1"><g transform="translate(79.698301, 147.468606)"><g><path d="M 1.890625 0 L 1.890625 -5.375 L 2.75 -5.375 L 2.75 -2.75 L 3.375 -2.75 L 3.375 -5.375 L 4.3125 -5.375 L 4.3125 -5.96875 L 1.890625 -5.96875 L 1.890625 -8.34375 L 2.25 -7.203125 L 2.6875 -7.203125 L 3.328125 -9.203125 L 3.953125 -7.203125 L 4.390625 -7.203125 L 5.421875 -10.421875 L 4.8125 -10.421875 L 4.171875 -8.328125 L 3.5 -10.421875 L 3.140625 -10.421875 L 2.484375 -8.328125 L 1.890625 -10.28125 L 1.890625 -13.25 L 15.15625 -13.25 L 15.15625 -10.421875 L 13.0625 -10.421875 L 13.0625 -7.203125 L 15.15625 -7.203125 L 15.15625 -5.46875 C 15.070312 -5.632812 14.945312 -5.757812 14.78125 -5.84375 C 14.613281 -5.9375 14.421875 -5.984375 14.203125 -5.984375 C 13.859375 -5.984375 13.582031 -5.890625 13.375 -5.703125 C 13.164062 -5.523438 13.0625 -5.3125 13.0625 -5.0625 C 13.0625 -4.78125 13.148438 -4.570312 13.328125 -4.4375 C 13.515625 -4.300781 13.769531 -4.191406 14.09375 -4.109375 C 14.300781 -4.046875 14.457031 -3.984375 14.5625 -3.921875 C 14.675781 -3.867188 14.734375 -3.785156 14.734375 -3.671875 C 14.734375 -3.410156 14.554688 -3.28125 14.203125 -3.28125 C 14.023438 -3.28125 13.890625 -3.320312 13.796875 -3.40625 C 13.710938 -3.5 13.671875 -3.613281 13.671875 -3.75 L 13.046875 -3.75 C 13.046875 -3.445312 13.148438 -3.195312 13.359375 -3 C 13.578125 -2.800781 13.859375 -2.703125 14.203125 -2.703125 C 14.421875 -2.703125 14.613281 -2.742188 14.78125 -2.828125 C 14.945312 -2.910156 15.070312 -3 15.15625 -3.09375 L 15.15625 0 Z M 5.890625 -7.203125 L 6.515625 -7.203125 L 6.515625 -8.375 L 6.96875 -8.375 L 7.625 -7.203125 L 8.328125 -7.203125 L 7.578125 -8.46875 C 8.023438 -8.675781 8.25 -8.988281 8.25 -9.40625 C 8.25 -9.6875 8.148438 -9.925781 7.953125 -10.125 C 7.753906 -10.320312 7.492188 -10.421875 7.171875 -10.421875 L 5.890625 -10.421875 Z M 8.875 -10.421875 L 8.875 -7.203125 L 9.5 -7.203125 L 9.5 -10.421875 Z M 10.984375 -9.828125 L 10.984375 -7.203125 L 11.59375 -7.203125 L 11.59375 -9.828125 L 12.53125 -9.828125 L 12.53125 -10.421875 L 10.03125 -10.421875 L 10.03125 -9.828125 Z M 6.515625 -8.953125 L 6.515625 -9.828125 L 7.171875 -9.828125 C 7.296875 -9.828125 7.398438 -9.785156 7.484375 -9.703125 C 7.578125 -9.617188 7.625 -9.515625 7.625 -9.390625 C 7.625 -9.242188 7.578125 -9.132812 7.484375 -9.0625 C 7.390625 -8.988281 7.285156 -8.953125 7.171875 -8.953125 Z M 15.15625 -9.140625 L 13.671875 -9.140625 L 13.671875 -9.828125 L 15.15625 -9.828125 Z M 15.15625 -7.78125 L 13.671875 -7.78125 L 13.671875 -8.5625 L 15.15625 -8.5625 Z M 6.21875 -2.703125 C 6.675781 -2.703125 7.046875 -2.859375 7.328125 -3.171875 C 7.617188 -3.484375 7.765625 -3.875 7.765625 -4.34375 C 7.765625 -4.800781 7.617188 -5.1875 7.328125 -5.5 C 7.035156 -5.820312 6.664062 -5.984375 6.21875 -5.984375 C 5.757812 -5.984375 5.382812 -5.820312 5.09375 -5.5 C 4.800781 -5.1875 4.65625 -4.800781 4.65625 -4.34375 C 4.65625 -3.875 4.796875 -3.484375 5.078125 -3.171875 C 5.367188 -2.859375 5.75 -2.703125 6.21875 -2.703125 Z M 11.078125 -2.703125 C 11.441406 -2.703125 11.742188 -2.820312 11.984375 -3.0625 C 12.222656 -3.300781 12.34375 -3.597656 12.34375 -3.953125 L 12.34375 -5.96875 L 11.734375 -5.96875 L 11.734375 -3.953125 C 11.734375 -3.765625 11.671875 -3.609375 11.546875 -3.484375 C 11.429688 -3.359375 11.273438 -3.296875 11.078125 -3.296875 C 10.859375 -3.296875 10.6875 -3.359375 10.5625 -3.484375 C 10.445312 -3.617188 10.390625 -3.773438 10.390625 -3.953125 L 10.390625 -5.96875 L 9.796875 -5.96875 L 9.796875 -3.953125 C 9.796875 -3.597656 9.914062 -3.300781 10.15625 -3.0625 C 10.40625 -2.820312 10.710938 -2.703125 11.078125 -2.703125 Z M 15.15625 -4.234375 C 14.957031 -4.410156 14.664062 -4.550781 14.28125 -4.65625 C 14.070312 -4.71875 13.921875 -4.773438 13.828125 -4.828125 C 13.742188 -4.878906 13.703125 -4.957031 13.703125 -5.0625 C 13.703125 -5.175781 13.75 -5.265625 13.84375 -5.328125 C 13.945312 -5.398438 14.066406 -5.4375 14.203125 -5.4375 C 14.328125 -5.4375 14.441406 -5.390625 14.546875 -5.296875 C 14.648438 -5.210938 14.703125 -5.101562 14.703125 -4.96875 L 15.15625 -4.96875 Z M 6.21875 -3.296875 C 5.9375 -3.296875 5.703125 -3.394531 5.515625 -3.59375 C 5.335938 -3.800781 5.25 -4.050781 5.25 -4.34375 C 5.25 -4.65625 5.335938 -4.90625 5.515625 -5.09375 C 5.691406 -5.289062 5.925781 -5.390625 6.21875 -5.390625 C 6.519531 -5.390625 6.753906 -5.289062 6.921875 -5.09375 C 7.085938 -4.90625 7.171875 -4.65625 7.171875 -4.34375 C 7.171875 -4.050781 7.078125 -3.800781 6.890625 -3.59375 C 6.710938 -3.394531 6.488281 -3.296875 6.21875 -3.296875 Z M 6.21875 -3.296875 "/></g></g></g><g fill="#ffffff" fill-opacity="1"><g transform="translate(96.747844, 147.468606)"><g><path d="M 9.796875 0 L 1.546875 0 L 1.546875 -13.25 L 4.859375 -13.25 L 4.859375 -2.984375 L 9.796875 -2.984375 Z M 9.796875 0 "/></g></g></g><g fill="#ffffff" fill-opacity="1"><g transform="translate(106.996508, 147.468606)"><g><path d="M 4.359375 0 L 1.1875 0 L 1.1875 -9.84375 L 4.359375 -9.84375 Z M 4.40625 -11.359375 L 1.140625 -11.359375 L 1.140625 -13.90625 L 4.40625 -13.90625 Z M 4.40625 -11.359375 "/></g></g></g><g fill="#ffffff" fill-opacity="1"><g transform="translate(112.566018, 147.468606)"><g><path d="M 5.59375 -3.609375 L 7.875 -9.84375 L 11.109375 -9.84375 L 6.984375 0 L 4.171875 0 L 0.03125 -9.84375 L 3.296875 -9.84375 Z M 5.59375 -3.609375 "/></g></g></g><g fill="#ffffff" fill-opacity="1"><g transform="translate(123.705052, 147.468606)"><g><path d="M 5.828125 -10.09375 C 6.765625 -10.09375 7.632812 -9.878906 8.4375 -9.453125 C 9.238281 -9.023438 9.878906 -8.421875 10.359375 -7.640625 C 10.847656 -6.867188 11.09375 -5.988281 11.09375 -5 C 11.09375 -4.707031 11.0625 -4.375 11 -4 L 3.6875 -4 C 3.8125 -3.40625 4.0625 -2.941406 4.4375 -2.609375 C 4.820312 -2.285156 5.300781 -2.125 5.875 -2.125 C 6.320312 -2.125 6.703125 -2.203125 7.015625 -2.359375 C 7.328125 -2.523438 7.585938 -2.773438 7.796875 -3.109375 L 10.8125 -3.109375 C 10.445312 -2.109375 9.832031 -1.296875 8.96875 -0.671875 C 8.113281 -0.0546875 7.066406 0.25 5.828125 0.25 C 4.878906 0.25 4 0.0351562 3.1875 -0.390625 C 2.382812 -0.828125 1.738281 -1.4375 1.25 -2.21875 C 0.769531 -3 0.53125 -3.898438 0.53125 -4.921875 C 0.53125 -5.941406 0.769531 -6.84375 1.25 -7.625 C 1.738281 -8.414062 2.382812 -9.023438 3.1875 -9.453125 C 4 -9.878906 4.878906 -10.09375 5.828125 -10.09375 Z M 5.828125 -7.703125 C 5.296875 -7.703125 4.84375 -7.550781 4.46875 -7.25 C 4.101562 -6.957031 3.851562 -6.53125 3.71875 -5.96875 L 7.984375 -5.96875 C 7.890625 -6.476562 7.65625 -6.894531 7.28125 -7.21875 C 6.914062 -7.539062 6.429688 -7.703125 5.828125 -7.703125 Z M 5.828125 -7.703125 "/></g></g></g><g fill="#ffffff" fill-opacity="1"><g transform="translate(135.336621, 147.468606)"><g/></g></g><g fill="#ffffff" fill-opacity="1"><g transform="translate(141.095582, 147.468606)"><g><path d="M 7.875 0.25 C 6.601562 0.25 5.421875 -0.0351562 4.328125 -0.609375 C 3.234375 -1.191406 2.363281 -2.003906 1.71875 -3.046875 C 1.070312 -4.097656 0.75 -5.289062 0.75 -6.625 C 0.75 -7.96875 1.070312 -9.160156 1.71875 -10.203125 C 2.363281 -11.253906 3.234375 -12.066406 4.328125 -12.640625 C 5.421875 -13.210938 6.601562 -13.5 7.875 -13.5 C 9.15625 -13.5 10.335938 -13.210938 11.421875 -12.640625 C 12.515625 -12.066406 13.382812 -11.253906 14.03125 -10.203125 C 14.675781 -9.160156 15 -7.96875 15 -6.625 C 15 -5.289062 14.675781 -4.097656 14.03125 -3.046875 C 13.382812 -2.003906 12.515625 -1.191406 11.421875 -0.609375 C 10.335938 -0.0351562 9.15625 0.25 7.875 0.25 Z M 7.875 -2.78125 C 8.582031 -2.78125 9.222656 -2.941406 9.796875 -3.265625 C 10.367188 -3.597656 10.816406 -4.054688 11.140625 -4.640625 C 11.460938 -5.222656 11.625 -5.882812 11.625 -6.625 C 11.625 -7.375 11.460938 -8.035156 11.140625 -8.609375 C 10.816406 -9.191406 10.367188 -9.644531 9.796875 -9.96875 C 9.222656 -10.300781 8.582031 -10.46875 7.875 -10.46875 C 7.164062 -10.46875 6.523438 -10.300781 5.953125 -9.96875 C 5.378906 -9.644531 4.929688 -9.191406 4.609375 -8.609375 C 4.285156 -8.035156 4.125 -7.375 4.125 -6.625 C 4.125 -5.882812 4.285156 -5.222656 4.609375 -4.640625 C 4.929688 -4.054688 5.378906 -3.597656 5.953125 -3.265625 C 6.523438 -2.941406 7.164062 -2.78125 7.875 -2.78125 Z M 7.875 -2.78125 "/></g></g></g><g fill="#ffffff" fill-opacity="1"><g transform="translate(156.856933, 147.468606)"><g><path d="M 7.046875 -10.09375 C 7.816406 -10.09375 8.5 -9.910156 9.09375 -9.546875 C 9.695312 -9.191406 10.164062 -8.695312 10.5 -8.0625 C 10.84375 -7.4375 11.015625 -6.71875 11.015625 -5.90625 L 11.015625 0 L 7.859375 0 L 7.859375 -5.25 C 7.859375 -5.863281 7.707031 -6.351562 7.40625 -6.71875 C 7.113281 -7.082031 6.695312 -7.265625 6.15625 -7.265625 C 5.625 -7.265625 5.191406 -7.078125 4.859375 -6.703125 C 4.523438 -6.335938 4.359375 -5.851562 4.359375 -5.25 L 4.359375 0 L 1.1875 0 L 1.1875 -9.84375 L 4.125 -9.84375 L 4.125 -8.90625 C 4.90625 -9.695312 5.878906 -10.09375 7.046875 -10.09375 Z M 7.046875 -10.09375 "/></g></g></g><g fill="#ffffff" fill-opacity="1"><g transform="translate(174.758955, 147.468606)"><g><path d="M 6 -8.3125 L 8.421875 -13.25 L 11.96875 -13.25 L 7.609375 -5.109375 L 7.609375 0 L 4.296875 0 L 4.296875 -5.109375 L -0.015625 -13.25 L 3.578125 -13.25 Z M 6 -8.3125 "/></g></g></g><g fill="#ffffff" fill-opacity="1"><g transform="translate(186.712578, 147.468606)"><g><path d="M 6 0.25 C 5.050781 0.25 4.15625 0.0390625 3.3125 -0.375 C 2.476562 -0.789062 1.804688 -1.390625 1.296875 -2.171875 C 0.785156 -2.960938 0.53125 -3.878906 0.53125 -4.921875 C 0.53125 -5.960938 0.785156 -6.875 1.296875 -7.65625 C 1.804688 -8.4375 2.476562 -9.035156 3.3125 -9.453125 C 4.15625 -9.878906 5.050781 -10.09375 6 -10.09375 C 6.945312 -10.09375 7.835938 -9.878906 8.671875 -9.453125 C 9.503906 -9.035156 10.175781 -8.4375 10.6875 -7.65625 C 11.195312 -6.875 11.453125 -5.960938 11.453125 -4.921875 C 11.453125 -3.878906 11.195312 -2.960938 10.6875 -2.171875 C 10.175781 -1.390625 9.503906 -0.789062 8.671875 -0.375 C 7.835938 0.0390625 6.945312 0.25 6 0.25 Z M 6 -2.578125 C 6.6875 -2.578125 7.242188 -2.796875 7.671875 -3.234375 C 8.109375 -3.679688 8.328125 -4.242188 8.328125 -4.921875 C 8.328125 -5.585938 8.109375 -6.144531 7.671875 -6.59375 C 7.242188 -7.039062 6.6875 -7.265625 6 -7.265625 C 5.320312 -7.265625 4.765625 -7.039062 4.328125 -6.59375 C 3.890625 -6.144531 3.671875 -5.585938 3.671875 -4.921875 C 3.671875 -4.242188 3.890625 -3.679688 4.328125 -3.234375 C 4.765625 -2.796875 5.320312 -2.578125 6 -2.578125 Z M 6 -2.578125 "/></g></g></g><g fill="#ffffff" fill-opacity="1"><g transform="translate(198.70409, 147.468606)"><g><path d="M 5.890625 0.25 C 4.898438 0.25 4.039062 0.0507812 3.3125 -0.34375 C 2.59375 -0.75 2.039062 -1.3125 1.65625 -2.03125 C 1.28125 -2.757812 1.09375 -3.601562 1.09375 -4.5625 L 1.09375 -9.84375 L 4.265625 -9.84375 L 4.265625 -4.46875 C 4.265625 -3.875 4.410156 -3.410156 4.703125 -3.078125 C 5.003906 -2.742188 5.398438 -2.578125 5.890625 -2.578125 C 6.378906 -2.578125 6.769531 -2.742188 7.0625 -3.078125 C 7.363281 -3.410156 7.515625 -3.875 7.515625 -4.46875 L 7.515625 -9.84375 L 10.6875 -9.84375 L 10.6875 -4.5625 C 10.6875 -3.601562 10.492188 -2.757812 10.109375 -2.03125 C 9.734375 -1.3125 9.179688 -0.75 8.453125 -0.34375 C 7.722656 0.0507812 6.867188 0.25 5.890625 0.25 Z M 5.890625 0.25 "/></g></g></g><g fill="#ffffff" fill-opacity="1"><g transform="translate(210.487219, 147.468606)"><g><path d="M 7.9375 -9.96875 L 7.9375 -7.15625 L 6.671875 -7.15625 C 6.023438 -7.15625 5.476562 -6.9375 5.03125 -6.5 C 4.582031 -6.070312 4.359375 -5.515625 4.359375 -4.828125 L 4.359375 0 L 1.1875 0 L 1.1875 -9.84375 L 4.125 -9.84375 L 4.125 -8.71875 C 4.882812 -9.550781 5.894531 -9.96875 7.15625 -9.96875 Z M 7.9375 -9.96875 "/></g></g></g><g fill="#ffffff" fill-opacity="1"><g transform="translate(218.614168, 147.468606)"><g/></g></g><g fill="#ffffff" fill-opacity="1"><g transform="translate(224.373129, 147.468606)"><g><path d="M 6 -8.3125 L 8.421875 -13.25 L 11.96875 -13.25 L 7.609375 -5.109375 L 7.609375 0 L 4.296875 0 L 4.296875 -5.109375 L -0.015625 -13.25 L 3.578125 -13.25 Z M 6 -8.3125 "/></g></g></g><g fill="#ffffff" fill-opacity="1"><g transform="translate(236.326752, 147.468606)"><g><path d="M 6 0.25 C 5.050781 0.25 4.15625 0.0390625 3.3125 -0.375 C 2.476562 -0.789062 1.804688 -1.390625 1.296875 -2.171875 C 0.785156 -2.960938 0.53125 -3.878906 0.53125 -4.921875 C 0.53125 -5.960938 0.785156 -6.875 1.296875 -7.65625 C 1.804688 -8.4375 2.476562 -9.035156 3.3125 -9.453125 C 4.15625 -9.878906 5.050781 -10.09375 6 -10.09375 C 6.945312 -10.09375 7.835938 -9.878906 8.671875 -9.453125 C 9.503906 -9.035156 10.175781 -8.4375 10.6875 -7.65625 C 11.195312 -6.875 11.453125 -5.960938 11.453125 -4.921875 C 11.453125 -3.878906 11.195312 -2.960938 10.6875 -2.171875 C 10.175781 -1.390625 9.503906 -0.789062 8.671875 -0.375 C 7.835938 0.0390625 6.945312 0.25 6 0.25 Z M 6 -2.578125 C 6.6875 -2.578125 7.242188 -2.796875 7.671875 -3.234375 C 8.109375 -3.679688 8.328125 -4.242188 8.328125 -4.921875 C 8.328125 -5.585938 8.109375 -6.144531 7.671875 -6.59375 C 7.242188 -7.039062 6.6875 -7.265625 6 -7.265625 C 5.320312 -7.265625 4.765625 -7.039062 4.328125 -6.59375 C 3.890625 -6.144531 3.671875 -5.585938 3.671875 -4.921875 C 3.671875 -4.242188 3.890625 -3.679688 4.328125 -3.234375 C 4.765625 -2.796875 5.320312 -2.578125 6 -2.578125 Z M 6 -2.578125 "/></g></g></g><g fill="#ffffff" fill-opacity="1"><g transform="translate(248.318264, 147.468606)"><g><path d="M 5.890625 0.25 C 4.898438 0.25 4.039062 0.0507812 3.3125 -0.34375 C 2.59375 -0.75 2.039062 -1.3125 1.65625 -2.03125 C 1.28125 -2.757812 1.09375 -3.601562 1.09375 -4.5625 L 1.09375 -9.84375 L 4.265625 -9.84375 L 4.265625 -4.46875 C 4.265625 -3.875 4.410156 -3.410156 4.703125 -3.078125 C 5.003906 -2.742188 5.398438 -2.578125 5.890625 -2.578125 C 6.378906 -2.578125 6.769531 -2.742188 7.0625 -3.078125 C 7.363281 -3.410156 7.515625 -3.875 7.515625 -4.46875 L 7.515625 -9.84375 L 10.6875 -9.84375 L 10.6875 -4.5625 C 10.6875 -3.601562 10.492188 -2.757812 10.109375 -2.03125 C 9.734375 -1.3125 9.179688 -0.75 8.453125 -0.34375 C 7.722656 0.0507812 6.867188 0.25 5.890625 0.25 Z M 5.890625 0.25 "/></g></g></g><g fill="#ffffff" fill-opacity="1"><g transform="translate(260.101393, 147.468606)"><g><path d="M 6.953125 0 L 3.640625 0 L 3.640625 -10.265625 L 0.375 -10.265625 L 0.375 -13.25 L 10.171875 -13.25 L 10.171875 -10.265625 L 6.953125 -10.265625 Z M 6.953125 0 "/></g></g></g><g fill="#ffffff" fill-opacity="1"><g transform="translate(270.653166, 147.468606)"><g><path d="M 5.890625 0.25 C 4.898438 0.25 4.039062 0.0507812 3.3125 -0.34375 C 2.59375 -0.75 2.039062 -1.3125 1.65625 -2.03125 C 1.28125 -2.757812 1.09375 -3.601562 1.09375 -4.5625 L 1.09375 -9.84375 L 4.265625 -9.84375 L 4.265625 -4.46875 C 4.265625 -3.875 4.410156 -3.410156 4.703125 -3.078125 C 5.003906 -2.742188 5.398438 -2.578125 5.890625 -2.578125 C 6.378906 -2.578125 6.769531 -2.742188 7.0625 -3.078125 C 7.363281 -3.410156 7.515625 -3.875 7.515625 -4.46875 L 7.515625 -9.84375 L 10.6875 -9.84375 L 10.6875 -4.5625 C 10.6875 -3.601562 10.492188 -2.757812 10.109375 -2.03125 C 9.734375 -1.3125 9.179688 -0.75 8.453125 -0.34375 C 7.722656 0.0507812 6.867188 0.25 5.890625 0.25 Z M 5.890625 0.25 "/></g></g></g><g fill="#ffffff" fill-opacity="1"><g transform="translate(282.436295, 147.468606)"><g><path d="M 7.3125 -10.09375 C 8.113281 -10.09375 8.882812 -9.878906 9.625 -9.453125 C 10.375 -9.023438 10.984375 -8.414062 11.453125 -7.625 C 11.921875 -6.84375 12.15625 -5.941406 12.15625 -4.921875 C 12.15625 -3.898438 11.921875 -2.992188 11.453125 -2.203125 C 10.984375 -1.410156 10.375 -0.800781 9.625 -0.375 C 8.882812 0.0390625 8.113281 0.25 7.3125 0.25 C 5.988281 0.25 4.957031 -0.15625 4.21875 -0.96875 L 4.21875 0 L 1.28125 0 L 1.28125 -13.640625 L 4.453125 -13.640625 L 4.453125 -9.09375 C 5.160156 -9.757812 6.113281 -10.09375 7.3125 -10.09375 Z M 6.671875 -2.5625 C 7.347656 -2.5625 7.910156 -2.785156 8.359375 -3.234375 C 8.804688 -3.679688 9.03125 -4.242188 9.03125 -4.921875 C 9.03125 -5.609375 8.804688 -6.175781 8.359375 -6.625 C 7.910156 -7.070312 7.347656 -7.296875 6.671875 -7.296875 C 5.984375 -7.296875 5.414062 -7.070312 4.96875 -6.625 C 4.519531 -6.175781 4.296875 -5.609375 4.296875 -4.921875 C 4.296875 -4.242188 4.519531 -3.679688 4.96875 -3.234375 C 5.414062 -2.785156 5.984375 -2.5625 6.671875 -2.5625 Z M 6.671875 -2.5625 "/></g></g></g><g fill="#ffffff" fill-opacity="1"><g transform="translate(295.166605, 147.468606)"><g><path d="M 5.828125 -10.09375 C 6.765625 -10.09375 7.632812 -9.878906 8.4375 -9.453125 C 9.238281 -9.023438 9.878906 -8.421875 10.359375 -7.640625 C 10.847656 -6.867188 11.09375 -5.988281 11.09375 -5 C 11.09375 -4.707031 11.0625 -4.375 11 -4 L 3.6875 -4 C 3.8125 -3.40625 4.0625 -2.941406 4.4375 -2.609375 C 4.820312 -2.285156 5.300781 -2.125 5.875 -2.125 C 6.320312 -2.125 6.703125 -2.203125 7.015625 -2.359375 C 7.328125 -2.523438 7.585938 -2.773438 7.796875 -3.109375 L 10.8125 -3.109375 C 10.445312 -2.109375 9.832031 -1.296875 8.96875 -0.671875 C 8.113281 -0.0546875 7.066406 0.25 5.828125 0.25 C 4.878906 0.25 4 0.0351562 3.1875 -0.390625 C 2.382812 -0.828125 1.738281 -1.4375 1.25 -2.21875 C 0.769531 -3 0.53125 -3.898438 0.53125 -4.921875 C 0.53125 -5.941406 0.769531 -6.84375 1.25 -7.625 C 1.738281 -8.414062 2.382812 -9.023438 3.1875 -9.453125 C 4 -9.878906 4.878906 -10.09375 5.828125 -10.09375 Z M 5.828125 -7.703125 C 5.296875 -7.703125 4.84375 -7.550781 4.46875 -7.25 C 4.101562 -6.957031 3.851562 -6.53125 3.71875 -5.96875 L 7.984375 -5.96875 C 7.890625 -6.476562 7.65625 -6.894531 7.28125 -7.21875 C 6.914062 -7.539062 6.429688 -7.703125 5.828125 -7.703125 Z M 5.828125 -7.703125 "/></g></g></g></svg>